# xmcd
#
# Track frame offsets: 
#        150
#        11947
#        27421
#        41465
#        57468
#        70034
#        80538
#        93664
#        106351
#        115602
#        127294
#        139488
#        150594
#        164653
#        175505
#        185821
#        198266
#        211351
#        224253
#        235108
#        246876
#        257569
#        268189
#
# Disc length: 3749 seconds
#
# Revision: 0
# Processed by: cddbd v1.5.2PL0 Copyright (c) Steve Scherf et al.
# Submitted via: ExactAudioCopy v1.0b4
#
DISCID=580ea317
DTITLE=Jimmy Reed - At Carnegie Hall (DLP)
DYEAR=1966
DGENRE=Blues
TTITLE0=Bright Lights Big City
TTITLE1=I' m Mr Luck
TTITLE2=What' s Wrong Baby
TTITLE3=Found Joy
TTITLE4=Kind Of Lonesome
TTITLE5=Aw Shucks, Hush Your Mouth
TTITLE6=Tell Me That You Love Me
TTITLE7=Blue Carnegie
TTITLE8=I'M A Love You
TTITLE9=Hold Me Close
TTITLE10=Blue Blue Water
TTITLE11=Baby What You Want Me To Do
TTITLE12=You Don'T Have To Go
TTITLE13=Hush, Hush
TTITLE14=I Found Love
TTITLE15=Honest I Do
TTITLE16=You Got Me Dizzy
TTITLE17=Big Boss Man
TTITLE18=Take Out Some Insurance
TTITLE19=Boogie In The Dark
TTITLE20=Going To New York
TTITLE21=Ain't That Loving You Baby
TTITLE22=The Sun Is Shining
EXTD=
EXTT0=
EXTT1=
EXTT2=
EXTT3=
EXTT4=
EXTT5=
EXTT6=
EXTT7=
EXTT8=
EXTT9=
EXTT10=
EXTT11=
EXTT12=
EXTT13=
EXTT14=
EXTT15=
EXTT16=
EXTT17=
EXTT18=
EXTT19=
EXTT20=
EXTT21=
EXTT22=
PLAYORDER=
